<svg xmlns="http://www.w3.org/2000/svg" xmlns:xlink="http://www.w3.org/1999/xlink" width="500" zoomAndPan="magnify" viewBox="0 0 375 374.999991" height="500" preserveAspectRatio="xMidYMid meet" version="1.0"><defs><clipPath id="0e82a147f8"><path d="M 297.347656 164.5625 L 365.519531 164.5625 L 365.519531 256.453125 L 297.347656 256.453125 Z M 297.347656 164.5625 " clip-rule="nonzero"/></clipPath><clipPath id="37ed649c85"><path d="M 253.734375 186.328125 L 292.503906 186.328125 L 292.503906 256.453125 L 253.734375 256.453125 Z M 253.734375 186.328125 " clip-rule="nonzero"/></clipPath><clipPath id="ae85ad69c7"><path d="M 165 213 L 253 213 L 253 256.453125 L 165 256.453125 Z M 165 213 " clip-rule="nonzero"/></clipPath><clipPath id="28d1adf812"><path d="M 125 116.203125 L 308 116.203125 L 308 164 L 125 164 Z M 125 116.203125 " clip-rule="nonzero"/></clipPath><clipPath id="9a8301eda0"><path d="M 4.09375 161 L 183 161 L 183 256.453125 L 4.09375 256.453125 Z M 4.09375 161 " clip-rule="nonzero"/></clipPath></defs><g clip-path="url(#0e82a147f8)"><path fill="#00317D" d="M 362.632812 248.140625 L 300.652344 248.140625 L 300.652344 173.097656 L 362.632812 173.097656 Z M 336.183594 252.523438 C 336.183594 253.222656 335.617188 253.785156 334.921875 253.785156 L 328.367188 253.785156 C 327.667969 253.785156 327.105469 253.222656 327.105469 252.523438 L 327.105469 252.5 C 327.105469 251.804688 327.667969 251.242188 328.367188 251.242188 L 334.921875 251.242188 C 335.617188 251.242188 336.183594 251.804688 336.183594 252.5 Z M 361.097656 164.746094 L 302.191406 164.746094 C 299.75 164.746094 297.769531 166.722656 297.769531 169.15625 L 297.769531 252.078125 C 297.769531 254.515625 299.75 256.492188 302.191406 256.492188 L 361.097656 256.492188 C 363.539062 256.492188 365.515625 254.515625 365.515625 252.078125 L 365.515625 169.15625 C 365.515625 166.722656 363.539062 164.746094 361.097656 164.746094 " fill-opacity="1" fill-rule="nonzero"/></g><g clip-path="url(#37ed649c85)"><path fill="#00317D" d="M 290.335938 248.640625 L 255.773438 248.640625 L 255.773438 193.199219 L 290.335938 193.199219 Z M 276.929688 252.539062 C 276.929688 253.132812 276.449219 253.613281 275.855469 253.613281 L 270.257812 253.613281 C 269.660156 253.613281 269.183594 253.132812 269.183594 252.539062 L 269.183594 252.519531 C 269.183594 251.925781 269.660156 251.445312 270.257812 251.445312 L 275.855469 251.445312 C 276.449219 251.445312 276.929688 251.925781 276.929688 252.519531 Z M 288.285156 186.988281 L 257.824219 186.988281 C 255.664062 186.988281 253.914062 188.953125 253.914062 191.375 L 253.914062 252.101562 C 253.914062 254.527344 255.664062 256.492188 257.824219 256.492188 L 288.285156 256.492188 C 290.445312 256.492188 292.195312 254.527344 292.195312 252.101562 L 292.195312 191.375 C 292.195312 188.953125 290.445312 186.988281 288.285156 186.988281 " fill-opacity="1" fill-rule="nonzero"/></g><g clip-path="url(#ae85ad69c7)"><path fill="#00317D" d="M 165.71875 235.644531 L 198.617188 235.644531 L 198.417969 237.078125 C 197.871094 240.238281 195.917969 248.023438 189.363281 254.390625 C 188.210938 254.421875 187.515625 254.449219 187.492188 254.472656 C 186.832031 255.066406 187.28125 256.109375 188.195312 256.109375 L 244.425781 256.109375 C 245.339844 256.109375 245.789062 255.066406 245.128906 254.472656 C 245.105469 254.449219 244.410156 254.421875 243.257812 254.390625 C 236.703125 248.023438 234.75 240.234375 234.203125 237.078125 C 234.195312 236.996094 234.121094 236.484375 234.007812 235.644531 L 252.519531 235.644531 L 252.3125 213.921875 L 165.515625 213.921875 L 165.71875 235.644531 " fill-opacity="1" fill-rule="nonzero"/></g><path fill="#00317D" d="M 293.589844 213.921875 L 293.589844 235.644531 L 296.375 235.644531 L 296.375 213.921875 L 293.589844 213.921875 " fill-opacity="1" fill-rule="nonzero"/><g clip-path="url(#28d1adf812)"><path fill="#00317D" d="M 307.324219 163.355469 L 307.324219 127.46875 C 307.324219 121.246094 302.546875 116.203125 296.652344 116.203125 L 135.96875 116.203125 C 130.074219 116.203125 125.296875 121.246094 125.296875 127.46875 L 125.296875 160.09375 L 131.457031 160.09375 L 131.457031 123.449219 L 301.164062 123.449219 L 301.164062 163.449219 C 301.5 163.390625 301.839844 163.355469 302.191406 163.355469 L 307.324219 163.355469 " fill-opacity="1" fill-rule="nonzero"/></g><g clip-path="url(#9a8301eda0)"><path fill="#00317D" d="M 157.847656 243.121094 L 28.421875 243.121094 L 28.421875 167.941406 L 157.847656 167.941406 Z M 179.183594 248.785156 L 163.980469 248.785156 C 164.207031 248.164062 164.324219 247.5 164.324219 246.808594 L 164.324219 167.355469 C 164.324219 164.121094 161.6875 161.488281 158.445312 161.488281 L 28.445312 161.488281 C 25.203125 161.488281 22.566406 164.121094 22.566406 167.355469 L 22.566406 246.808594 C 22.566406 247.5 22.683594 248.164062 22.910156 248.785156 L 7.710938 248.785156 C 5.757812 248.785156 4.179688 250.054688 4.179688 251.621094 L 4.179688 251.636719 C 4.179688 252.535156 4.90625 253.261719 5.808594 253.261719 L 6.792969 253.261719 L 12.8125 255.074219 C 15.257812 255.761719 17.789062 256.109375 20.328125 256.109375 L 166.5625 256.109375 C 169.101562 256.109375 171.632812 255.761719 174.078125 255.074219 L 179.59375 253.261719 L 181.085938 253.261719 C 181.984375 253.261719 182.710938 252.535156 182.710938 251.636719 L 182.710938 251.621094 C 182.710938 250.054688 181.132812 248.785156 179.183594 248.785156 " fill-opacity="1" fill-rule="nonzero"/></g></svg>