<svg xmlns="http://www.w3.org/2000/svg" xmlns:xlink="http://www.w3.org/1999/xlink" width="500" zoomAndPan="magnify" viewBox="0 0 375 374.999991" height="500" preserveAspectRatio="xMidYMid meet" version="1.0"><defs><clipPath id="cdec2a12d4"><path d="M 61 24.644531 L 304 24.644531 L 304 354 L 61 354 Z M 61 24.644531 " clip-rule="nonzero"/></clipPath><clipPath id="519cb71b6a"><path d="M 18.957031 99 L 188 99 L 188 184 L 18.957031 184 Z M 18.957031 99 " clip-rule="nonzero"/></clipPath><clipPath id="159e2ce767"><path d="M 203 189 L 371.457031 189 L 371.457031 274 L 203 274 Z M 203 189 " clip-rule="nonzero"/></clipPath><clipPath id="ca7282076d"><path d="M 19 281 L 189 281 L 189 365.144531 L 19 365.144531 Z M 19 281 " clip-rule="nonzero"/></clipPath></defs><path fill="#00317D" d="M 262.667969 83.949219 L 102.40625 83.949219 C 100.179688 83.949219 98.371094 82.144531 98.371094 79.917969 C 98.371094 77.6875 100.179688 75.882812 102.40625 75.882812 L 262.675781 75.882812 C 264.90625 75.882812 266.710938 77.6875 266.710938 79.917969 C 266.710938 82.144531 264.898438 83.949219 262.667969 83.949219 Z M 262.667969 83.949219 " fill-opacity="1" fill-rule="evenodd"/><path fill="#00317D" d="M 262.667969 127.675781 L 183.140625 127.675781 C 180.914062 127.675781 179.105469 125.871094 179.105469 123.640625 C 179.105469 121.414062 180.914062 119.609375 183.140625 119.609375 L 262.675781 119.609375 C 264.90625 119.609375 266.710938 121.414062 266.710938 123.640625 C 266.710938 125.871094 264.898438 127.683594 262.667969 127.675781 Z M 262.667969 127.675781 " fill-opacity="1" fill-rule="evenodd"/><path fill="#00317D" d="M 262.667969 171.410156 L 183.140625 171.410156 C 180.914062 171.410156 179.105469 169.605469 179.105469 167.375 C 179.105469 165.148438 180.914062 163.34375 183.140625 163.34375 L 262.675781 163.34375 C 264.90625 163.34375 266.710938 165.148438 266.710938 167.375 C 266.710938 169.605469 264.898438 171.410156 262.667969 171.410156 Z M 262.667969 171.410156 " fill-opacity="1" fill-rule="evenodd"/><path fill="#00317D" d="M 135.34375 215.136719 L 102.398438 215.136719 C 100.171875 215.136719 98.363281 213.332031 98.363281 211.101562 C 98.363281 208.875 100.171875 207.070312 102.398438 207.070312 L 135.34375 207.070312 C 137.574219 207.070312 139.378906 208.875 139.378906 211.101562 C 139.378906 213.332031 137.574219 215.136719 135.34375 215.136719 Z M 135.34375 215.136719 " fill-opacity="1" fill-rule="evenodd"/><path fill="#00317D" d="M 262.667969 302.597656 L 184.101562 302.597656 C 181.871094 302.597656 180.066406 300.792969 180.066406 298.5625 C 180.066406 296.335938 181.871094 294.527344 184.101562 294.527344 L 262.667969 294.527344 C 264.898438 294.527344 266.703125 296.335938 266.703125 298.5625 C 266.710938 300.792969 264.898438 302.597656 262.667969 302.597656 Z M 262.667969 302.597656 " fill-opacity="1" fill-rule="evenodd"/><path fill="#00317D" d="M 207.273438 215.136719 L 174.917969 215.136719 C 172.691406 215.136719 170.882812 213.332031 170.882812 211.101562 C 170.882812 208.875 172.691406 207.070312 174.917969 207.070312 L 207.273438 207.070312 C 209.5 207.070312 211.304688 208.875 211.304688 211.101562 C 211.308594 213.332031 209.5 215.136719 207.273438 215.136719 Z M 207.273438 215.136719 " fill-opacity="1" fill-rule="evenodd"/><path fill="#00317D" d="M 182.542969 258.863281 L 102.402344 258.863281 C 100.171875 258.863281 98.367188 257.058594 98.367188 254.828125 C 98.367188 252.601562 100.171875 250.796875 102.402344 250.796875 L 182.535156 250.796875 C 184.765625 250.796875 186.570312 252.601562 186.570312 254.828125 C 186.578125 257.058594 184.765625 258.863281 182.542969 258.863281 Z M 182.542969 258.863281 " fill-opacity="1" fill-rule="evenodd"/><g clip-path="url(#cdec2a12d4)"><path fill="#00317D" d="M 299.574219 197.59375 C 297.347656 197.59375 295.539062 195.789062 295.539062 193.5625 L 295.539062 54.082031 C 295.539062 42.332031 285.976562 32.761719 274.214844 32.761719 L 90.855469 32.761719 C 79.09375 32.761719 69.527344 42.324219 69.527344 54.082031 L 69.527344 103.671875 C 69.527344 105.902344 67.722656 107.707031 65.492188 107.707031 C 63.265625 107.707031 61.457031 105.902344 61.457031 103.671875 L 61.457031 54.082031 C 61.457031 37.875 74.640625 24.695312 90.855469 24.695312 L 274.222656 24.695312 C 290.425781 24.695312 303.617188 37.875 303.617188 54.082031 L 303.617188 193.5625 C 303.617188 195.789062 301.804688 197.59375 299.574219 197.59375 Z M 65.492188 289.210938 C 63.265625 289.210938 61.457031 287.402344 61.457031 285.175781 L 61.457031 179.550781 C 61.457031 177.320312 63.265625 175.515625 65.492188 175.515625 C 67.722656 175.515625 69.527344 177.320312 69.527344 179.550781 L 69.527344 285.175781 C 69.535156 287.402344 67.722656 289.210938 65.492188 289.210938 Z M 274.222656 353.78125 L 184.101562 353.78125 C 181.871094 353.78125 180.066406 351.976562 180.066406 349.75 C 180.066406 347.519531 181.871094 345.714844 184.101562 345.714844 L 274.222656 345.714844 C 285.984375 345.714844 295.539062 336.152344 295.539062 324.394531 L 295.539062 269.4375 C 295.539062 267.210938 297.347656 265.402344 299.574219 265.402344 C 301.804688 265.402344 303.609375 267.210938 303.609375 269.4375 L 303.609375 324.394531 C 303.617188 340.59375 290.425781 353.78125 274.222656 353.78125 Z M 274.222656 353.78125 " fill-opacity="1" fill-rule="evenodd"/></g><path fill="#00317D" d="M 291.671875 254.917969 C 282.867188 254.917969 275.691406 248.972656 275.691406 241.664062 C 275.691406 239.4375 277.5 237.632812 279.726562 237.632812 C 281.964844 237.632812 283.761719 239.4375 283.761719 241.664062 C 283.761719 244.429688 287.460938 246.847656 291.671875 246.847656 C 295.890625 246.847656 299.582031 244.429688 299.582031 241.664062 C 299.582031 238.859375 296.019531 237.320312 290.128906 235.105469 C 283.699219 232.6875 275.691406 229.667969 275.691406 221.3125 C 275.691406 214.003906 282.867188 208.058594 291.671875 208.058594 C 300.484375 208.058594 307.652344 214.003906 307.652344 221.3125 C 307.652344 223.539062 305.855469 225.347656 303.617188 225.347656 C 301.390625 225.347656 299.582031 223.539062 299.582031 221.3125 C 299.582031 218.546875 295.890625 216.128906 291.671875 216.128906 C 287.460938 216.128906 283.761719 218.546875 283.761719 221.3125 C 283.761719 223.890625 287.414062 225.457031 292.976562 227.558594 C 299.519531 230.019531 307.652344 233.085938 307.652344 241.671875 C 307.660156 248.972656 300.484375 254.917969 291.671875 254.917969 Z M 291.671875 254.917969 " fill-opacity="1" fill-rule="evenodd"/><path fill="#00317D" d="M 251.171875 254.917969 C 237.746094 254.917969 226.824219 244.40625 226.824219 231.488281 C 226.824219 218.5625 237.738281 208.058594 251.171875 208.058594 C 256.402344 208.058594 261.589844 209.722656 265.777344 212.738281 C 267.582031 214.042969 267.988281 216.566406 266.6875 218.371094 C 265.386719 220.175781 262.859375 220.585938 261.054688 219.28125 C 258.234375 217.246094 254.71875 216.125 251.171875 216.125 C 242.207031 216.125 234.902344 223.019531 234.902344 231.488281 C 234.902344 239.953125 242.207031 246.847656 251.171875 246.847656 C 254.726562 246.847656 258.234375 245.730469 261.054688 243.691406 C 262.859375 242.390625 265.386719 242.796875 266.6875 244.601562 C 267.988281 246.410156 267.582031 248.933594 265.777344 250.234375 C 261.589844 253.253906 256.402344 254.917969 251.171875 254.917969 Z M 251.171875 254.917969 " fill-opacity="1" fill-rule="evenodd"/><path fill="#00317D" d="M 331.886719 254.917969 C 323.082031 254.917969 315.898438 248.972656 315.898438 241.664062 C 315.898438 239.4375 317.707031 237.632812 319.933594 237.632812 C 322.164062 237.632812 323.96875 239.4375 323.96875 241.664062 C 323.96875 244.429688 327.667969 246.847656 331.878906 246.847656 C 336.097656 246.847656 339.789062 244.429688 339.789062 241.664062 C 339.789062 238.859375 336.226562 237.320312 330.335938 235.105469 C 323.90625 232.6875 315.898438 229.667969 315.898438 221.3125 C 315.898438 214.003906 323.074219 208.058594 331.878906 208.058594 C 340.691406 208.058594 347.859375 214.003906 347.859375 221.3125 C 347.859375 223.539062 346.054688 225.347656 343.824219 225.347656 C 341.597656 225.347656 339.789062 223.539062 339.789062 221.3125 C 339.789062 218.546875 336.097656 216.128906 331.878906 216.128906 C 327.667969 216.128906 323.96875 218.546875 323.96875 221.3125 C 323.96875 223.890625 327.621094 225.457031 333.183594 227.558594 C 339.726562 230.019531 347.859375 233.085938 347.859375 241.671875 C 347.875 248.972656 340.699219 254.917969 331.886719 254.917969 Z M 331.886719 254.917969 " fill-opacity="1" fill-rule="evenodd"/><path fill="#00317D" d="M 39.507812 161.164062 C 37.28125 161.164062 35.472656 159.355469 35.472656 157.128906 L 35.472656 126.109375 C 35.472656 123.882812 37.28125 122.078125 39.507812 122.078125 C 41.738281 122.078125 43.542969 123.882812 43.542969 126.109375 L 43.542969 157.128906 C 43.542969 159.355469 41.738281 161.164062 39.507812 161.164062 Z M 39.507812 161.164062 " fill-opacity="1" fill-rule="evenodd"/><path fill="#00317D" d="M 58.734375 161.164062 C 56.503906 161.164062 54.699219 159.355469 54.699219 157.128906 L 54.699219 126.109375 C 54.699219 123.882812 56.503906 122.078125 58.734375 122.078125 C 60.964844 122.078125 62.769531 123.882812 62.769531 126.109375 L 62.769531 157.128906 C 62.769531 159.355469 60.964844 161.164062 58.734375 161.164062 Z M 58.734375 161.164062 " fill-opacity="1" fill-rule="evenodd"/><path fill="#00317D" d="M 58.734375 145.625 L 39.507812 145.625 C 37.28125 145.625 35.472656 143.820312 35.472656 141.589844 C 35.472656 139.363281 37.28125 137.558594 39.507812 137.558594 L 58.734375 137.558594 C 60.960938 137.558594 62.769531 139.363281 62.769531 141.589844 C 62.769531 143.820312 60.964844 145.625 58.734375 145.625 Z M 58.734375 145.625 " fill-opacity="1" fill-rule="evenodd"/><path fill="#00317D" d="M 133.851562 161.164062 C 131.621094 161.164062 129.816406 159.355469 129.816406 157.128906 L 129.816406 146.121094 L 124.535156 158.695312 C 123.902344 160.195312 122.441406 161.164062 120.8125 161.164062 C 119.1875 161.164062 117.71875 160.1875 117.085938 158.695312 L 111.804688 146.121094 L 111.804688 157.128906 C 111.804688 159.355469 110 161.164062 107.769531 161.164062 C 105.542969 161.164062 103.734375 159.355469 103.734375 157.128906 L 103.734375 126.101562 C 103.734375 124.175781 105.085938 122.523438 106.972656 122.148438 C 108.859375 121.765625 110.75 122.773438 111.496094 124.546875 L 120.820312 146.71875 L 130.136719 124.546875 C 130.878906 122.773438 132.773438 121.773438 134.648438 122.148438 C 136.535156 122.53125 137.894531 124.1875 137.894531 126.101562 L 137.894531 157.128906 C 137.894531 159.355469 136.078125 161.164062 133.851562 161.164062 Z M 133.851562 161.164062 " fill-opacity="1" fill-rule="evenodd"/><path fill="#00317D" d="M 166.625 161.164062 L 145.324219 161.164062 C 143.09375 161.164062 141.289062 159.355469 141.289062 157.128906 L 141.289062 126.109375 C 141.289062 123.882812 143.09375 122.078125 145.324219 122.078125 C 147.554688 122.078125 149.359375 123.882812 149.359375 126.109375 L 149.359375 153.09375 L 166.625 153.09375 C 168.855469 153.09375 170.660156 154.898438 170.660156 157.128906 C 170.660156 159.355469 168.855469 161.164062 166.625 161.164062 Z M 166.625 161.164062 " fill-opacity="1" fill-rule="evenodd"/><path fill="#00317D" d="M 96.296875 130.136719 L 70.207031 130.136719 C 67.980469 130.136719 66.171875 128.332031 66.171875 126.101562 C 66.171875 123.875 67.980469 122.070312 70.207031 122.070312 L 96.296875 122.070312 C 98.523438 122.070312 100.332031 123.875 100.332031 126.101562 C 100.332031 128.332031 98.523438 130.136719 96.296875 130.136719 Z M 96.296875 130.136719 " fill-opacity="1" fill-rule="evenodd"/><path fill="#00317D" d="M 83.253906 161.164062 C 81.027344 161.164062 79.222656 159.355469 79.222656 157.128906 L 79.222656 126.109375 C 79.222656 123.882812 81.027344 122.078125 83.253906 122.078125 C 85.484375 122.078125 87.289062 123.882812 87.289062 126.109375 L 87.289062 157.128906 C 87.289062 159.355469 85.484375 161.164062 83.253906 161.164062 Z M 83.253906 161.164062 " fill-opacity="1" fill-rule="evenodd"/><path fill="#00317D" d="M 81.347656 348.304688 C 71.703125 348.304688 63.863281 340.613281 63.863281 331.160156 C 63.863281 328.933594 65.660156 327.128906 67.898438 327.128906 C 70.125 327.128906 71.933594 328.933594 71.933594 331.160156 C 71.933594 336.160156 76.152344 340.234375 81.34375 340.234375 C 86.539062 340.234375 90.765625 336.167969 90.765625 331.160156 L 90.765625 301.972656 C 90.765625 299.746094 92.570312 297.941406 94.800781 297.941406 C 97.03125 297.941406 98.835938 299.746094 98.835938 301.972656 L 98.835938 331.160156 C 98.835938 340.613281 90.988281 348.304688 81.347656 348.304688 Z M 81.347656 348.304688 " fill-opacity="1" fill-rule="evenodd"/><path fill="#00317D" d="M 127.136719 348.304688 C 117.734375 348.304688 110.078125 341.984375 110.078125 334.21875 C 110.078125 331.984375 111.886719 330.1875 114.113281 330.1875 C 116.34375 330.1875 118.148438 331.984375 118.148438 334.21875 C 118.148438 337.480469 122.265625 340.226562 127.128906 340.226562 C 132.003906 340.226562 136.113281 337.472656 136.113281 334.21875 C 136.113281 330.9375 132.132812 329.195312 125.574219 326.726562 C 118.667969 324.132812 110.070312 320.890625 110.070312 312.039062 C 110.070312 304.265625 117.726562 297.953125 127.132812 297.953125 C 136.535156 297.953125 144.191406 304.265625 144.191406 312.039062 C 144.191406 314.265625 142.382812 316.070312 140.15625 316.070312 C 137.925781 316.070312 136.121094 314.265625 136.121094 312.039062 C 136.121094 308.777344 132.003906 306.03125 127.140625 306.03125 C 122.273438 306.03125 118.15625 308.785156 118.15625 312.039062 C 118.15625 315.089844 122.039062 316.773438 128.433594 319.179688 C 135.464844 321.824219 144.199219 325.121094 144.199219 334.226562 C 144.199219 341.984375 136.542969 348.304688 127.136719 348.304688 Z M 127.136719 348.304688 " fill-opacity="1" fill-rule="evenodd"/><g clip-path="url(#519cb71b6a)"><path fill="#00317D" d="M 27.027344 175.515625 L 179.105469 175.515625 L 179.105469 107.707031 L 27.027344 107.707031 Z M 183.140625 183.585938 L 22.992188 183.585938 C 20.765625 183.585938 18.957031 181.777344 18.957031 179.550781 L 18.957031 103.664062 C 18.957031 101.4375 20.765625 99.632812 22.992188 99.632812 L 183.140625 99.632812 C 185.371094 99.632812 187.175781 101.4375 187.175781 103.664062 L 187.175781 179.550781 C 187.175781 181.777344 185.371094 183.585938 183.140625 183.585938 Z M 183.140625 183.585938 " fill-opacity="1" fill-rule="evenodd"/></g><g clip-path="url(#159e2ce767)"><path fill="#00317D" d="M 211.308594 265.402344 L 363.386719 265.402344 L 363.386719 197.59375 L 211.308594 197.59375 Z M 367.417969 273.472656 L 207.273438 273.472656 C 205.042969 273.472656 203.238281 271.667969 203.238281 269.4375 L 203.238281 193.554688 C 203.238281 191.324219 205.042969 189.519531 207.273438 189.519531 L 367.417969 189.519531 C 369.648438 189.519531 371.453125 191.324219 371.453125 193.554688 L 371.453125 269.4375 C 371.453125 271.667969 369.648438 273.480469 367.417969 273.472656 Z M 367.417969 273.472656 " fill-opacity="1" fill-rule="evenodd"/></g><g clip-path="url(#ca7282076d)"><path fill="#00317D" d="M 27.988281 357.027344 L 180.066406 357.027344 L 180.066406 289.210938 L 27.988281 289.210938 C 27.988281 289.210938 27.988281 357.027344 27.988281 357.027344 Z M 184.101562 365.09375 L 23.953125 365.09375 C 21.722656 365.09375 19.917969 363.289062 19.917969 361.0625 L 19.917969 285.175781 C 19.917969 282.945312 21.722656 281.140625 23.953125 281.140625 L 184.101562 281.140625 C 186.335938 281.140625 188.136719 282.945312 188.136719 285.175781 L 188.136719 361.0625 C 188.136719 363.289062 186.335938 365.09375 184.101562 365.09375 Z M 184.101562 365.09375 " fill-opacity="1" fill-rule="evenodd"/></g></svg>