<svg xmlns="http://www.w3.org/2000/svg" xmlns:xlink="http://www.w3.org/1999/xlink" width="700" zoomAndPan="magnify" viewBox="0 0 525 149.999998" height="200" preserveAspectRatio="xMidYMid meet" version="1.0"><defs><g/><clipPath id="ad731623f9"><path d="M 83.800781 21 L 136 21 L 136 98 L 83.800781 98 Z M 83.800781 21 " clip-rule="nonzero"/></clipPath><clipPath id="9060d8d04b"><path d="M 135 45 L 186.550781 45 L 186.550781 118.808594 L 135 118.808594 Z M 135 45 " clip-rule="nonzero"/></clipPath><clipPath id="d1546891cb"><path d="M 83.800781 67 L 166 67 L 166 118.808594 L 83.800781 118.808594 Z M 83.800781 67 " clip-rule="nonzero"/></clipPath><clipPath id="c17bf96b34"><path d="M 137 16.058594 L 166 16.058594 L 166 44 L 137 44 Z M 137 16.058594 " clip-rule="nonzero"/></clipPath></defs><g clip-path="url(#ad731623f9)"><path fill="#06bfce" d="M 83.800781 97.582031 L 135.175781 67.429688 L 112.890625 29.460938 C 105.109375 16.195312 84.511719 20.949219 83.820312 36.316406 C 83.804688 36.636719 83.800781 36.960938 83.800781 37.285156 L 83.800781 97.582031 " fill-opacity="1" fill-rule="nonzero"/></g><g clip-path="url(#9060d8d04b)"><path fill="#80c2ff" d="M 165.324219 118.808594 C 177.046875 118.808594 186.550781 109.304688 186.550781 97.582031 L 186.550781 57.40625 C 186.550781 48.5 176.875 42.960938 169.191406 47.46875 L 135.175781 67.433594 L 165.324219 118.808594 " fill-opacity="1" fill-rule="nonzero"/></g><g clip-path="url(#d1546891cb)"><path fill="#3fa9f5" d="M 105.027344 118.808594 L 165.324219 118.808594 L 135.175781 67.433594 L 83.800781 97.582031 C 83.800781 98.085938 83.816406 98.585938 83.851562 99.078125 C 84.621094 110.101562 93.808594 118.808594 105.027344 118.808594 " fill-opacity="1" fill-rule="nonzero"/></g><g clip-path="url(#c17bf96b34)"><path fill="#0071af" d="M 165.324219 29.789062 C 165.324219 37.371094 159.175781 43.519531 151.59375 43.519531 C 144.007812 43.519531 137.863281 37.371094 137.863281 29.789062 C 137.863281 22.207031 144.011719 16.058594 151.59375 16.058594 C 159.175781 16.058594 165.324219 22.203125 165.324219 29.789062 Z M 165.324219 29.789062 " fill-opacity="1" fill-rule="nonzero"/></g><g fill="#0071af" fill-opacity="1"><g transform="translate(195.122746, 88.124997)"><g><path d="M 15.40625 0.84375 C 13.488281 0.84375 11.742188 0.535156 10.171875 -0.078125 C 8.597656 -0.703125 7.25 -1.5625 6.125 -2.65625 C 5 -3.757812 4.117188 -5.054688 3.484375 -6.546875 C 2.847656 -8.035156 2.53125 -9.648438 2.53125 -11.390625 L 2.53125 -18.140625 C 2.53125 -19.890625 2.847656 -21.507812 3.484375 -23 C 4.117188 -24.488281 5 -25.78125 6.125 -26.875 C 7.25 -27.976562 8.597656 -28.835938 10.171875 -29.453125 C 11.742188 -30.078125 13.488281 -30.390625 15.40625 -30.390625 C 17.09375 -30.390625 18.609375 -30.15625 19.953125 -29.6875 C 21.304688 -29.226562 22.460938 -28.644531 23.421875 -27.9375 C 24.378906 -27.238281 25.109375 -26.476562 25.609375 -25.65625 C 26.117188 -24.84375 26.375 -24.097656 26.375 -23.421875 C 26.375 -22.578125 26.082031 -21.875 25.5 -21.3125 C 24.925781 -20.75 24.164062 -20.46875 23.21875 -20.46875 C 22.425781 -20.46875 21.789062 -20.675781 21.3125 -21.09375 C 20.832031 -21.519531 20.347656 -21.976562 19.859375 -22.46875 C 19.367188 -22.96875 18.789062 -23.425781 18.125 -23.84375 C 17.46875 -24.269531 16.5625 -24.484375 15.40625 -24.484375 C 13.601562 -24.484375 12.164062 -23.929688 11.09375 -22.828125 C 10.03125 -21.734375 9.5 -20.171875 9.5 -18.140625 L 9.5 -11.390625 C 9.5 -9.367188 10.03125 -7.804688 11.09375 -6.703125 C 12.164062 -5.609375 13.601562 -5.0625 15.40625 -5.0625 C 16.664062 -5.0625 17.65625 -5.28125 18.375 -5.71875 C 19.09375 -6.15625 19.710938 -6.640625 20.234375 -7.171875 C 20.753906 -7.703125 21.253906 -8.1875 21.734375 -8.625 C 22.210938 -9.0625 22.847656 -9.28125 23.640625 -9.28125 C 24.585938 -9.28125 25.347656 -9 25.921875 -8.4375 C 26.503906 -7.875 26.796875 -7.171875 26.796875 -6.328125 C 26.796875 -5.648438 26.523438 -4.890625 25.984375 -4.046875 C 25.453125 -3.203125 24.691406 -2.421875 23.703125 -1.703125 C 22.722656 -0.992188 21.53125 -0.394531 20.125 0.09375 C 18.71875 0.59375 17.144531 0.84375 15.40625 0.84375 Z M 15.40625 0.84375 "/></g></g></g><g fill="#0071af" fill-opacity="1"><g transform="translate(223.185214, 88.124997)"><g><path d="M 6.328125 0.421875 C 5.367188 0.421875 4.566406 0.101562 3.921875 -0.53125 C 3.273438 -1.164062 2.953125 -1.90625 2.953125 -2.75 L 2.953125 -26.375 C 2.953125 -27.21875 3.273438 -27.957031 3.921875 -28.59375 C 4.566406 -29.226562 5.367188 -29.546875 6.328125 -29.546875 L 15.40625 -29.546875 C 17.207031 -29.546875 18.796875 -29.304688 20.171875 -28.828125 C 21.546875 -28.347656 22.710938 -27.691406 23.671875 -26.859375 C 24.628906 -26.035156 25.351562 -25.054688 25.84375 -23.921875 C 26.34375 -22.796875 26.59375 -21.570312 26.59375 -20.25 C 26.59375 -18.875 26.332031 -17.726562 25.8125 -16.8125 C 25.289062 -15.90625 24.707031 -15.171875 24.0625 -14.609375 C 23.320312 -13.953125 22.476562 -13.441406 21.53125 -13.078125 L 21.53125 -12.65625 L 26.796875 -5.703125 C 27.023438 -5.390625 27.238281 -5.078125 27.4375 -4.765625 C 27.570312 -4.484375 27.707031 -4.164062 27.84375 -3.8125 C 27.988281 -3.46875 28.0625 -3.113281 28.0625 -2.75 C 28.0625 -1.90625 27.738281 -1.164062 27.09375 -0.53125 C 26.445312 0.101562 25.644531 0.421875 24.6875 0.421875 C 23.957031 0.421875 23.359375 0.242188 22.890625 -0.109375 C 22.429688 -0.460938 22.046875 -0.847656 21.734375 -1.265625 L 14.765625 -10.96875 L 9.703125 -10.96875 L 9.703125 -2.75 C 9.703125 -1.90625 9.378906 -1.164062 8.734375 -0.53125 C 8.085938 0.101562 7.285156 0.421875 6.328125 0.421875 Z M 15.40625 -16.875 C 16.78125 -16.875 17.828125 -17.195312 18.546875 -17.84375 C 19.265625 -18.5 19.625 -19.300781 19.625 -20.25 C 19.625 -21.207031 19.265625 -22.007812 18.546875 -22.65625 C 17.828125 -23.3125 16.78125 -23.640625 15.40625 -23.640625 L 9.703125 -23.640625 L 9.703125 -16.875 Z M 15.40625 -16.875 "/></g></g></g><g fill="#0071af" fill-opacity="1"><g transform="translate(252.302655, 88.124997)"><g><path d="M 15.40625 0.84375 C 13.488281 0.84375 11.742188 0.535156 10.171875 -0.078125 C 8.597656 -0.703125 7.25 -1.5625 6.125 -2.65625 C 5 -3.757812 4.117188 -5.054688 3.484375 -6.546875 C 2.847656 -8.035156 2.53125 -9.648438 2.53125 -11.390625 L 2.53125 -18.140625 C 2.53125 -19.890625 2.847656 -21.507812 3.484375 -23 C 4.117188 -24.488281 5 -25.78125 6.125 -26.875 C 7.25 -27.976562 8.597656 -28.835938 10.171875 -29.453125 C 11.742188 -30.078125 13.488281 -30.390625 15.40625 -30.390625 C 17.289062 -30.390625 19.023438 -30.078125 20.609375 -29.453125 C 22.203125 -28.835938 23.5625 -27.976562 24.6875 -26.875 C 25.8125 -25.78125 26.691406 -24.488281 27.328125 -23 C 27.960938 -21.507812 28.28125 -19.890625 28.28125 -18.140625 L 28.28125 -11.390625 C 28.28125 -9.648438 27.960938 -8.035156 27.328125 -6.546875 C 26.691406 -5.054688 25.8125 -3.757812 24.6875 -2.65625 C 23.5625 -1.5625 22.203125 -0.703125 20.609375 -0.078125 C 19.023438 0.535156 17.289062 0.84375 15.40625 0.84375 Z M 15.40625 -5.0625 C 17.207031 -5.0625 18.640625 -5.609375 19.703125 -6.703125 C 20.773438 -7.804688 21.3125 -9.367188 21.3125 -11.390625 L 21.3125 -18.140625 C 21.3125 -20.171875 20.773438 -21.734375 19.703125 -22.828125 C 18.640625 -23.929688 17.207031 -24.484375 15.40625 -24.484375 C 13.601562 -24.484375 12.164062 -23.929688 11.09375 -22.828125 C 10.03125 -21.734375 9.5 -20.171875 9.5 -18.140625 L 9.5 -11.390625 C 9.5 -9.367188 10.03125 -7.804688 11.09375 -6.703125 C 12.164062 -5.609375 13.601562 -5.0625 15.40625 -5.0625 Z M 15.40625 -5.0625 "/></g></g></g><g fill="#0071af" fill-opacity="1"><g transform="translate(283.108066, 88.124997)"><g><path d="M 6.765625 -32.5 C 6.109375 -32.5 5.554688 -32.722656 5.109375 -33.171875 C 4.660156 -33.617188 4.4375 -34.164062 4.4375 -34.8125 C 4.4375 -35.238281 4.507812 -35.59375 4.65625 -35.875 C 4.707031 -36.007812 4.773438 -36.148438 4.859375 -36.296875 L 7.1875 -40.296875 C 7.488281 -40.835938 7.859375 -41.253906 8.296875 -41.546875 C 8.734375 -41.835938 9.273438 -41.984375 9.921875 -41.984375 C 10.648438 -41.984375 11.289062 -41.707031 11.84375 -41.15625 C 12.394531 -40.613281 12.671875 -39.976562 12.671875 -39.25 C 12.671875 -38.9375 12.628906 -38.65625 12.546875 -38.40625 C 12.460938 -38.15625 12.363281 -37.929688 12.25 -37.734375 C 12.132812 -37.503906 11.992188 -37.304688 11.828125 -37.140625 L 9.5 -34.390625 C 9.050781 -33.859375 8.613281 -33.410156 8.1875 -33.046875 C 7.769531 -32.679688 7.296875 -32.5 6.765625 -32.5 Z M 6.546875 0.421875 C 5.585938 0.421875 4.785156 0.101562 4.140625 -0.53125 C 3.492188 -1.164062 3.171875 -1.90625 3.171875 -2.75 L 3.171875 -26.796875 C 3.171875 -27.640625 3.492188 -28.378906 4.140625 -29.015625 C 4.785156 -29.648438 5.585938 -29.96875 6.546875 -29.96875 C 7.492188 -29.96875 8.289062 -29.648438 8.9375 -29.015625 C 9.59375 -28.378906 9.921875 -27.640625 9.921875 -26.796875 L 9.921875 -2.75 C 9.921875 -1.90625 9.59375 -1.164062 8.9375 -0.53125 C 8.289062 0.101562 7.492188 0.421875 6.546875 0.421875 Z M 6.546875 0.421875 "/></g></g></g><g fill="#0071af" fill-opacity="1"><g transform="translate(296.189818, 88.124997)"><g/></g></g><g fill="#0071af" fill-opacity="1"><g transform="translate(307.372606, 88.124997)"><g><path d="M 6.328125 0 C 5.367188 0 4.566406 -0.316406 3.921875 -0.953125 C 3.273438 -1.585938 2.953125 -2.328125 2.953125 -3.171875 L 2.953125 -26.375 C 2.953125 -27.21875 3.273438 -27.957031 3.921875 -28.59375 C 4.566406 -29.226562 5.367188 -29.546875 6.328125 -29.546875 L 14.34375 -29.546875 C 16.226562 -29.546875 17.96875 -29.234375 19.5625 -28.609375 C 21.15625 -27.992188 22.515625 -27.132812 23.640625 -26.03125 C 24.765625 -24.9375 25.640625 -23.644531 26.265625 -22.15625 C 26.898438 -20.664062 27.21875 -19.046875 27.21875 -17.296875 L 27.21875 -12.234375 C 27.21875 -10.492188 26.898438 -8.878906 26.265625 -7.390625 C 25.640625 -5.898438 24.765625 -4.601562 23.640625 -3.5 C 22.515625 -2.40625 21.15625 -1.546875 19.5625 -0.921875 C 17.96875 -0.304688 16.226562 0 14.34375 0 Z M 14.34375 -5.90625 C 16.144531 -5.90625 17.578125 -6.453125 18.640625 -7.546875 C 19.710938 -8.648438 20.25 -10.210938 20.25 -12.234375 L 20.25 -17.296875 C 20.25 -19.328125 19.710938 -20.890625 18.640625 -21.984375 C 17.578125 -23.085938 16.144531 -23.640625 14.34375 -23.640625 L 9.703125 -23.640625 L 9.703125 -5.90625 Z M 14.34375 -5.90625 "/></g></g></g><g fill="#0071af" fill-opacity="1"><g transform="translate(337.123031, 88.124997)"><g><path d="M 6.328125 0 C 5.367188 0 4.566406 -0.316406 3.921875 -0.953125 C 3.273438 -1.585938 2.953125 -2.328125 2.953125 -3.171875 L 2.953125 -26.375 C 2.953125 -27.21875 3.273438 -27.957031 3.921875 -28.59375 C 4.566406 -29.226562 5.367188 -29.546875 6.328125 -29.546875 L 22.578125 -29.546875 C 23.648438 -29.546875 24.476562 -29.265625 25.0625 -28.703125 C 25.65625 -28.140625 25.953125 -27.4375 25.953125 -26.59375 C 25.953125 -25.75 25.65625 -25.046875 25.0625 -24.484375 C 24.476562 -23.921875 23.648438 -23.640625 22.578125 -23.640625 L 9.703125 -23.640625 L 9.703125 -17.71875 L 18.78125 -17.71875 C 19.851562 -17.71875 20.679688 -17.4375 21.265625 -16.875 C 21.859375 -16.3125 22.15625 -15.609375 22.15625 -14.765625 C 22.15625 -13.921875 21.859375 -13.21875 21.265625 -12.65625 C 20.679688 -12.09375 19.851562 -11.8125 18.78125 -11.8125 L 9.703125 -11.8125 L 9.703125 -5.90625 L 23 -5.90625 C 24.070312 -5.90625 24.898438 -5.625 25.484375 -5.0625 C 26.078125 -4.5 26.375 -3.796875 26.375 -2.953125 C 26.375 -2.109375 26.078125 -1.40625 25.484375 -0.84375 C 24.898438 -0.28125 24.070312 0 23 0 Z M 6.328125 0 "/></g></g></g><g fill="#0071af" fill-opacity="1"><g transform="translate(364.341509, 88.124997)"><g><path d="M 12.65625 0.84375 C 10.914062 0.84375 9.34375 0.59375 7.9375 0.09375 C 6.53125 -0.394531 5.332031 -0.992188 4.34375 -1.703125 C 3.363281 -2.421875 2.601562 -3.203125 2.0625 -4.046875 C 1.53125 -4.890625 1.265625 -5.648438 1.265625 -6.328125 C 1.265625 -7.171875 1.550781 -7.875 2.125 -8.4375 C 2.707031 -9 3.476562 -9.28125 4.4375 -9.28125 C 5.21875 -9.28125 5.851562 -9.0625 6.34375 -8.625 C 6.84375 -8.1875 7.359375 -7.703125 7.890625 -7.171875 C 8.421875 -6.640625 9.070312 -6.15625 9.84375 -5.71875 C 10.625 -5.28125 11.703125 -5.0625 13.078125 -5.0625 C 14.765625 -5.0625 16.03125 -5.410156 16.875 -6.109375 C 17.71875 -6.816406 18.140625 -7.59375 18.140625 -8.4375 C 18.140625 -9.28125 17.742188 -9.945312 16.953125 -10.4375 C 16.171875 -10.9375 15.179688 -11.378906 13.984375 -11.765625 C 12.796875 -12.160156 11.507812 -12.5625 10.125 -12.96875 C 8.75 -13.382812 7.460938 -13.925781 6.265625 -14.59375 C 5.066406 -15.269531 4.070312 -16.132812 3.28125 -17.1875 C 2.5 -18.25 2.109375 -19.625 2.109375 -21.3125 C 2.109375 -22.582031 2.351562 -23.765625 2.84375 -24.859375 C 3.34375 -25.953125 4.078125 -26.914062 5.046875 -27.75 C 6.015625 -28.582031 7.203125 -29.226562 8.609375 -29.6875 C 10.015625 -30.15625 11.644531 -30.390625 13.5 -30.390625 C 15.1875 -30.390625 16.707031 -30.15625 18.0625 -29.6875 C 19.414062 -29.226562 20.566406 -28.644531 21.515625 -27.9375 C 22.472656 -27.238281 23.207031 -26.476562 23.71875 -25.65625 C 24.226562 -24.84375 24.484375 -24.097656 24.484375 -23.421875 C 24.484375 -22.578125 24.191406 -21.875 23.609375 -21.3125 C 23.035156 -20.75 22.269531 -20.46875 21.3125 -20.46875 C 20.78125 -20.46875 20.320312 -20.566406 19.9375 -20.765625 C 19.5625 -20.960938 19.210938 -21.207031 18.890625 -21.5 C 18.566406 -21.800781 18.242188 -22.125 17.921875 -22.46875 C 17.597656 -22.820312 17.21875 -23.144531 16.78125 -23.4375 C 16.34375 -23.738281 15.828125 -23.988281 15.234375 -24.1875 C 14.640625 -24.382812 13.921875 -24.484375 13.078125 -24.484375 C 11.703125 -24.484375 10.691406 -24.207031 10.046875 -23.65625 C 9.398438 -23.101562 9.078125 -22.460938 9.078125 -21.734375 C 9.078125 -20.890625 9.46875 -20.21875 10.25 -19.71875 C 11.039062 -19.226562 12.035156 -18.785156 13.234375 -18.390625 C 14.429688 -18.003906 15.71875 -17.601562 17.09375 -17.1875 C 18.46875 -16.78125 19.753906 -16.238281 20.953125 -15.5625 C 22.148438 -14.894531 23.140625 -14.03125 23.921875 -12.96875 C 24.710938 -11.914062 25.109375 -10.546875 25.109375 -8.859375 C 25.109375 -7.535156 24.832031 -6.289062 24.28125 -5.125 C 23.738281 -3.957031 22.9375 -2.929688 21.875 -2.046875 C 20.820312 -1.160156 19.519531 -0.457031 17.96875 0.0625 C 16.425781 0.582031 14.65625 0.84375 12.65625 0.84375 Z M 12.65625 0.84375 "/></g></g></g><g fill="#0071af" fill-opacity="1"><g transform="translate(391.138009, 88.124997)"><g><path d="M 6.546875 0.421875 C 5.585938 0.421875 4.785156 0.101562 4.140625 -0.53125 C 3.492188 -1.164062 3.171875 -1.90625 3.171875 -2.75 L 3.171875 -26.796875 C 3.171875 -27.640625 3.492188 -28.378906 4.140625 -29.015625 C 4.785156 -29.648438 5.585938 -29.96875 6.546875 -29.96875 C 7.492188 -29.96875 8.289062 -29.648438 8.9375 -29.015625 C 9.59375 -28.378906 9.921875 -27.640625 9.921875 -26.796875 L 9.921875 -2.75 C 9.921875 -1.90625 9.59375 -1.164062 8.9375 -0.53125 C 8.289062 0.101562 7.492188 0.421875 6.546875 0.421875 Z M 6.546875 0.421875 "/></g></g></g><g fill="#0071af" fill-opacity="1"><g transform="translate(404.219749, 88.124997)"><g><path d="M 15.40625 0.84375 C 13.488281 0.84375 11.742188 0.535156 10.171875 -0.078125 C 8.597656 -0.703125 7.25 -1.5625 6.125 -2.65625 C 5 -3.757812 4.117188 -5.054688 3.484375 -6.546875 C 2.847656 -8.035156 2.53125 -9.648438 2.53125 -11.390625 L 2.53125 -18.140625 C 2.53125 -19.890625 2.847656 -21.507812 3.484375 -23 C 4.117188 -24.488281 5 -25.78125 6.125 -26.875 C 7.25 -27.976562 8.597656 -28.835938 10.171875 -29.453125 C 11.742188 -30.078125 13.488281 -30.390625 15.40625 -30.390625 C 17.09375 -30.390625 18.609375 -30.15625 19.953125 -29.6875 C 21.304688 -29.226562 22.460938 -28.644531 23.421875 -27.9375 C 24.378906 -27.238281 25.109375 -26.476562 25.609375 -25.65625 C 26.117188 -24.84375 26.375 -24.097656 26.375 -23.421875 C 26.375 -22.578125 26.082031 -21.875 25.5 -21.3125 C 24.925781 -20.75 24.164062 -20.46875 23.21875 -20.46875 C 22.425781 -20.46875 21.789062 -20.675781 21.3125 -21.09375 C 20.832031 -21.519531 20.347656 -21.976562 19.859375 -22.46875 C 19.367188 -22.96875 18.789062 -23.425781 18.125 -23.84375 C 17.46875 -24.269531 16.5625 -24.484375 15.40625 -24.484375 C 13.601562 -24.484375 12.164062 -23.929688 11.09375 -22.828125 C 10.03125 -21.734375 9.5 -20.171875 9.5 -18.140625 L 9.5 -11.390625 C 9.5 -9.367188 10.03125 -7.804688 11.09375 -6.703125 C 12.164062 -5.609375 13.601562 -5.0625 15.40625 -5.0625 C 16.300781 -5.0625 17.050781 -5.144531 17.65625 -5.3125 C 18.257812 -5.488281 18.757812 -5.6875 19.15625 -5.90625 C 19.601562 -6.15625 19.96875 -6.4375 20.25 -6.75 L 20.25 -11.1875 L 17.71875 -11.1875 C 16.65625 -11.1875 15.828125 -11.46875 15.234375 -12.03125 C 14.640625 -12.59375 14.34375 -13.296875 14.34375 -14.140625 C 14.34375 -14.984375 14.640625 -15.6875 15.234375 -16.25 C 15.828125 -16.8125 16.65625 -17.09375 17.71875 -17.09375 L 23.640625 -17.09375 C 24.585938 -17.09375 25.382812 -16.773438 26.03125 -16.140625 C 26.6875 -15.503906 27.015625 -14.765625 27.015625 -13.921875 L 27.015625 -5.90625 C 27.015625 -5.3125 26.742188 -4.628906 26.203125 -3.859375 C 25.671875 -3.085938 24.90625 -2.359375 23.90625 -1.671875 C 22.90625 -0.984375 21.6875 -0.394531 20.25 0.09375 C 18.820312 0.59375 17.207031 0.84375 15.40625 0.84375 Z M 15.40625 0.84375 "/></g></g></g><g fill="#0071af" fill-opacity="1"><g transform="translate(433.759191, 88.124997)"><g><path d="M 6.328125 0.421875 C 5.367188 0.421875 4.566406 0.101562 3.921875 -0.53125 C 3.273438 -1.164062 2.953125 -1.90625 2.953125 -2.75 L 2.953125 -26.796875 C 2.953125 -27.640625 3.28125 -28.378906 3.9375 -29.015625 C 4.601562 -29.648438 5.472656 -29.96875 6.546875 -29.96875 C 7.492188 -29.96875 8.289062 -29.6875 8.9375 -29.125 C 9.59375 -28.5625 10.203125 -27.859375 10.765625 -27.015625 L 20.671875 -12.03125 L 21.109375 -12.03125 L 21.109375 -26.796875 C 21.109375 -27.640625 21.429688 -28.378906 22.078125 -29.015625 C 22.722656 -29.648438 23.523438 -29.96875 24.484375 -29.96875 C 25.429688 -29.96875 26.226562 -29.648438 26.875 -29.015625 C 27.53125 -28.378906 27.859375 -27.640625 27.859375 -26.796875 L 27.859375 -2.75 C 27.859375 -1.875 27.523438 -1.125 26.859375 -0.5 C 26.203125 0.113281 25.335938 0.421875 24.265625 0.421875 C 23.304688 0.421875 22.503906 0.140625 21.859375 -0.421875 C 21.210938 -0.984375 20.609375 -1.6875 20.046875 -2.53125 L 10.125 -17.515625 L 9.703125 -17.515625 L 9.703125 -2.75 C 9.703125 -1.90625 9.378906 -1.164062 8.734375 -0.53125 C 8.085938 0.101562 7.285156 0.421875 6.328125 0.421875 Z M 6.328125 0.421875 "/></g></g></g></svg>