<svg xmlns="http://www.w3.org/2000/svg" xmlns:xlink="http://www.w3.org/1999/xlink" width="700" zoomAndPan="magnify" viewBox="0 0 525 149.999998" height="200" preserveAspectRatio="xMidYMid meet" version="1.0"><defs><g/><clipPath id="c47da10267"><path d="M 66 53 L 117.75 53 L 117.75 126.371094 L 66 126.371094 Z M 66 53 " clip-rule="nonzero"/></clipPath><clipPath id="2e8f687890"><path d="M 15 74 L 97 74 L 97 126.371094 L 15 126.371094 Z M 15 74 " clip-rule="nonzero"/></clipPath><clipPath id="38c588e48e"><path d="M 69 23.621094 L 97 23.621094 L 97 52 L 69 52 Z M 69 23.621094 " clip-rule="nonzero"/></clipPath></defs><rect x="-52.5" width="630" fill="#ffffff" y="-15" height="179.999997" fill-opacity="1"/><rect x="-52.5" width="630" fill="#ffffff" y="-15" height="179.999997" fill-opacity="1"/><path fill="#817bb8" d="M 15 105.140625 L 66.378906 74.992188 L 44.09375 37.019531 C 36.308594 23.757812 15.714844 28.511719 15.019531 43.875 C 15.007812 44.199219 15 44.523438 15 44.847656 L 15 105.140625 " fill-opacity="1" fill-rule="nonzero"/><g clip-path="url(#c47da10267)"><path fill="#e62b4a" d="M 96.523438 126.371094 C 108.246094 126.371094 117.753906 116.867188 117.753906 105.140625 L 117.75 64.96875 C 117.75 56.0625 108.078125 50.523438 100.394531 55.03125 L 66.378906 74.996094 L 96.523438 126.371094 " fill-opacity="1" fill-rule="nonzero"/></g><g clip-path="url(#2e8f687890)"><path fill="#985288" d="M 36.226562 126.371094 L 96.523438 126.371094 L 66.378906 74.996094 L 15 105.140625 C 15 105.644531 15.015625 106.144531 15.054688 106.640625 C 15.820312 117.664062 25.007812 126.371094 36.226562 126.371094 " fill-opacity="1" fill-rule="nonzero"/></g><g clip-path="url(#38c588e48e)"><path fill="#c6488c" d="M 96.523438 37.351562 C 96.523438 44.933594 90.378906 51.082031 82.792969 51.082031 C 75.210938 51.082031 69.0625 44.933594 69.0625 37.351562 C 69.066406 29.769531 75.210938 23.621094 82.792969 23.621094 C 90.378906 23.621094 96.523438 29.765625 96.523438 37.351562 Z M 96.523438 37.351562 " fill-opacity="1" fill-rule="nonzero"/></g><g fill="#2a1a3f" fill-opacity="1"><g transform="translate(130.239329, 96.374996)"><g><path d="M 27.546875 -9.984375 C 29.859375 -9.984375 32.125 -10.507812 34.34375 -11.5625 C 36.5625 -12.625 38.804688 -14.410156 41.078125 -16.921875 L 48.15625 -10.203125 C 45.3125 -6.535156 42.066406 -3.757812 38.421875 -1.875 C 34.785156 0 31.039062 0.9375 27.1875 0.9375 C 23.71875 0.9375 20.460938 0.226562 17.421875 -1.1875 C 14.390625 -2.613281 11.75 -4.53125 9.5 -6.9375 C 7.257812 -9.351562 5.5 -12.160156 4.21875 -15.359375 C 2.945312 -18.566406 2.3125 -21.976562 2.3125 -25.59375 C 2.3125 -29.207031 2.972656 -32.601562 4.296875 -35.78125 C 5.628906 -38.96875 7.425781 -41.765625 9.6875 -44.171875 C 11.957031 -46.585938 14.632812 -48.492188 17.71875 -49.890625 C 20.800781 -51.296875 24.078125 -52 27.546875 -52 C 30.773438 -52 33.847656 -51.394531 36.765625 -50.1875 C 39.679688 -48.976562 42.539062 -46.976562 45.34375 -44.1875 L 38.96875 -36.453125 C 36.945312 -38.328125 35.03125 -39.585938 33.21875 -40.234375 C 31.414062 -40.890625 29.523438 -41.21875 27.546875 -41.21875 C 25.578125 -41.21875 23.710938 -40.804688 21.953125 -39.984375 C 20.191406 -39.171875 18.660156 -38.0625 17.359375 -36.65625 C 16.054688 -35.257812 15.03125 -33.609375 14.28125 -31.703125 C 13.53125 -29.804688 13.15625 -27.769531 13.15625 -25.59375 C 13.15625 -23.425781 13.53125 -21.398438 14.28125 -19.515625 C 15.03125 -17.640625 16.054688 -15.988281 17.359375 -14.5625 C 18.660156 -13.144531 20.191406 -12.023438 21.953125 -11.203125 C 23.710938 -10.390625 25.578125 -9.984375 27.546875 -9.984375 Z M 27.546875 -9.984375 "/></g></g></g><g fill="#2a1a3f" fill-opacity="1"><g transform="translate(179.044864, 96.374996)"><g><path d="M 13.09375 -30.875 C 13.570312 -31.644531 14.125 -32.378906 14.75 -33.078125 C 15.375 -33.773438 16.117188 -34.398438 16.984375 -34.953125 C 17.859375 -35.515625 18.847656 -35.960938 19.953125 -36.296875 C 21.066406 -36.640625 22.320312 -36.8125 23.71875 -36.8125 C 25.351562 -36.8125 27.257812 -36.519531 29.4375 -35.9375 L 28.484375 -27.046875 C 27.960938 -27.140625 27.4375 -27.257812 26.90625 -27.40625 C 26.46875 -27.5 25.984375 -27.582031 25.453125 -27.65625 C 24.921875 -27.726562 24.4375 -27.765625 24 -27.765625 C 22.457031 -27.765625 21.023438 -27.546875 19.703125 -27.109375 C 18.378906 -26.679688 17.234375 -26.082031 16.265625 -25.3125 C 15.304688 -24.539062 14.535156 -23.609375 13.953125 -22.515625 C 13.378906 -21.429688 13.09375 -20.265625 13.09375 -19.015625 L 13.09375 0 L 3.109375 0 L 3.109375 -35.859375 L 12.15625 -35.859375 Z M 13.09375 -30.875 "/></g></g></g><g fill="#2a1a3f" fill-opacity="1"><g transform="translate(207.388181, 96.374996)"><g><path d="M 20.890625 -36.875 C 23.453125 -36.875 25.863281 -36.378906 28.125 -35.390625 C 30.394531 -34.410156 32.375 -33.0625 34.0625 -31.34375 C 35.75 -29.632812 37.085938 -27.632812 38.078125 -25.34375 C 39.066406 -23.050781 39.5625 -20.601562 39.5625 -18 C 39.5625 -15.394531 39.066406 -12.945312 38.078125 -10.65625 C 37.085938 -8.375 35.75 -6.375 34.0625 -4.65625 C 32.375 -2.945312 30.394531 -1.597656 28.125 -0.609375 C 25.863281 0.378906 23.453125 0.875 20.890625 0.875 C 18.296875 0.875 15.863281 0.378906 13.59375 -0.609375 C 11.332031 -1.597656 9.359375 -2.945312 7.671875 -4.65625 C 5.984375 -6.375 4.644531 -8.375 3.65625 -10.65625 C 2.664062 -12.945312 2.171875 -15.394531 2.171875 -18 C 2.171875 -20.601562 2.664062 -23.050781 3.65625 -25.34375 C 4.644531 -27.632812 5.984375 -29.632812 7.671875 -31.34375 C 9.359375 -33.0625 11.332031 -34.410156 13.59375 -35.390625 C 15.863281 -36.378906 18.296875 -36.875 20.890625 -36.875 Z M 20.890625 -7.875 C 22.097656 -7.875 23.21875 -8.113281 24.25 -8.59375 C 25.289062 -9.082031 26.207031 -9.75 27 -10.59375 C 27.800781 -11.4375 28.429688 -12.445312 28.890625 -13.625 C 29.347656 -14.8125 29.578125 -16.128906 29.578125 -17.578125 C 29.578125 -19.015625 29.347656 -20.359375 28.890625 -21.609375 C 28.429688 -22.867188 27.800781 -23.96875 27 -24.90625 C 26.207031 -25.851562 25.289062 -26.601562 24.25 -27.15625 C 23.21875 -27.707031 22.097656 -27.984375 20.890625 -27.984375 C 19.691406 -27.984375 18.5625 -27.707031 17.5 -27.15625 C 16.4375 -26.601562 15.503906 -25.851562 14.703125 -24.90625 C 13.910156 -23.96875 13.285156 -22.867188 12.828125 -21.609375 C 12.378906 -20.359375 12.15625 -19.015625 12.15625 -17.578125 C 12.15625 -16.128906 12.378906 -14.8125 12.828125 -13.625 C 13.285156 -12.445312 13.910156 -11.4375 14.703125 -10.59375 C 15.503906 -9.75 16.4375 -9.082031 17.5 -8.59375 C 18.5625 -8.113281 19.691406 -7.875 20.890625 -7.875 Z M 20.890625 -7.875 "/></g></g></g><g fill="#2a1a3f" fill-opacity="1"><g transform="translate(247.444858, 96.374996)"><g><path d="M 14.46875 0 L 4.484375 0 L 4.484375 -35.859375 L 14.46875 -35.859375 Z M 17.78125 -51.34375 L 13.234375 -38.390625 L 5.859375 -38.390625 L 6.859375 -51.34375 Z M 17.78125 -51.34375 "/></g></g></g><g fill="#2a1a3f" fill-opacity="1"><g transform="translate(264.942472, 96.374996)"><g/></g></g><g fill="#2a1a3f" fill-opacity="1"><g transform="translate(283.380048, 96.374996)"><g><path d="M 24.15625 -51.265625 C 27.863281 -51.265625 31.140625 -50.585938 33.984375 -49.234375 C 36.828125 -47.890625 39.203125 -46.0625 41.109375 -43.75 C 43.015625 -41.4375 44.460938 -38.710938 45.453125 -35.578125 C 46.441406 -32.441406 46.9375 -29.113281 46.9375 -25.59375 C 46.9375 -22.03125 46.414062 -18.691406 45.375 -15.578125 C 44.34375 -12.472656 42.910156 -9.765625 41.078125 -7.453125 C 39.242188 -5.140625 37.070312 -3.316406 34.5625 -1.984375 C 32.0625 -0.660156 29.335938 0 26.390625 0 L 3.46875 0 L 3.46875 -51.265625 Z M 24.21875 -9.90625 C 26.289062 -9.90625 28.0625 -10.328125 29.53125 -11.171875 C 31.007812 -12.015625 32.226562 -13.160156 33.1875 -14.609375 C 34.15625 -16.054688 34.867188 -17.71875 35.328125 -19.59375 C 35.785156 -21.476562 36.015625 -23.457031 36.015625 -25.53125 C 36.015625 -27.601562 35.796875 -29.585938 35.359375 -31.484375 C 34.921875 -33.390625 34.21875 -35.066406 33.25 -36.515625 C 32.289062 -37.960938 31.0625 -39.117188 29.5625 -39.984375 C 28.070312 -40.859375 26.289062 -41.296875 24.21875 -41.296875 L 14.46875 -41.296875 L 14.46875 -9.90625 Z M 24.21875 -9.90625 "/></g></g></g><g fill="#2a1a3f" fill-opacity="1"><g transform="translate(331.317938, 96.374996)"><g><path d="M 20.96875 -36.875 C 23.664062 -36.875 26.125 -36.332031 28.34375 -35.25 C 30.5625 -34.164062 32.46875 -32.742188 34.0625 -30.984375 C 35.65625 -29.222656 36.882812 -27.195312 37.75 -24.90625 C 38.613281 -22.625 39.046875 -20.273438 39.046875 -17.859375 C 39.046875 -16.410156 38.851562 -14.867188 38.46875 -13.234375 L 12.875 -13.234375 C 13.832031 -11.597656 15.203125 -10.210938 16.984375 -9.078125 C 18.773438 -7.941406 20.707031 -7.375 22.78125 -7.375 C 24.851562 -7.375 26.671875 -7.539062 28.234375 -7.875 C 29.804688 -8.21875 31.289062 -8.65625 32.6875 -9.1875 L 36.015625 -3.03125 C 34.234375 -1.78125 32.195312 -0.816406 29.90625 -0.140625 C 27.613281 0.535156 25.164062 0.875 22.5625 0.875 C 19.71875 0.875 17.066406 0.378906 14.609375 -0.609375 C 12.148438 -1.597656 10.003906 -2.9375 8.171875 -4.625 C 6.335938 -6.3125 4.890625 -8.3125 3.828125 -10.625 C 2.765625 -12.9375 2.234375 -15.394531 2.234375 -18 C 2.234375 -20.5625 2.71875 -22.984375 3.6875 -25.265625 C 4.65625 -27.554688 5.992188 -29.554688 7.703125 -31.265625 C 9.410156 -32.984375 11.394531 -34.347656 13.65625 -35.359375 C 15.925781 -36.367188 18.363281 -36.875 20.96875 -36.875 Z M 29.140625 -20.96875 C 28.566406 -23.039062 27.53125 -24.726562 26.03125 -26.03125 C 24.539062 -27.332031 22.851562 -27.984375 20.96875 -27.984375 C 19.039062 -27.984375 17.289062 -27.332031 15.71875 -26.03125 C 14.15625 -24.726562 13.085938 -23.039062 12.515625 -20.96875 Z M 29.140625 -20.96875 "/></g></g></g><g fill="#2a1a3f" fill-opacity="1"><g transform="translate(372.893016, 96.374996)"><g><path d="M 26.03125 -18.796875 C 28.6875 -16.921875 30.015625 -14.25 30.015625 -10.78125 C 30.015625 -9.1875 29.640625 -7.6875 28.890625 -6.28125 C 28.140625 -4.882812 27.113281 -3.65625 25.8125 -2.59375 C 24.507812 -1.539062 22.988281 -0.710938 21.25 -0.109375 C 19.519531 0.492188 17.664062 0.796875 15.6875 0.796875 C 14.195312 0.796875 12.738281 0.601562 11.3125 0.21875 C 9.894531 -0.164062 8.582031 -0.695312 7.375 -1.375 C 6.164062 -2.050781 5.113281 -2.859375 4.21875 -3.796875 C 3.332031 -4.734375 2.671875 -5.78125 2.234375 -6.9375 C 3.347656 -7.46875 4.578125 -8.054688 5.921875 -8.703125 C 7.273438 -9.359375 8.457031 -9.953125 9.46875 -10.484375 C 9.90625 -9.765625 10.582031 -9.101562 11.5 -8.5 C 12.414062 -7.894531 13.671875 -7.59375 15.265625 -7.59375 C 16.898438 -7.59375 18.101562 -7.976562 18.875 -8.75 C 19.644531 -9.519531 20.03125 -10.242188 20.03125 -10.921875 C 20.03125 -11.398438 19.765625 -11.84375 19.234375 -12.25 C 18.703125 -12.664062 18.097656 -12.992188 17.421875 -13.234375 C 16.460938 -13.617188 15.664062 -13.820312 15.03125 -13.84375 C 14.40625 -13.875 13.6875 -14.007812 12.875 -14.25 C 10.269531 -14.875 8.28125 -15.703125 6.90625 -16.734375 C 5.53125 -17.773438 4.53125 -18.828125 3.90625 -19.890625 C 3.28125 -20.953125 2.929688 -21.960938 2.859375 -22.921875 C 2.785156 -23.890625 2.75 -24.660156 2.75 -25.234375 C 2.75 -26.773438 3.082031 -28.242188 3.75 -29.640625 C 4.425781 -31.046875 5.351562 -32.265625 6.53125 -33.296875 C 7.71875 -34.335938 9.09375 -35.171875 10.65625 -35.796875 C 12.226562 -36.421875 13.90625 -36.734375 15.6875 -36.734375 C 17.1875 -36.734375 18.609375 -36.515625 19.953125 -36.078125 C 21.304688 -35.648438 22.535156 -35.050781 23.640625 -34.28125 C 24.753906 -33.507812 25.707031 -32.59375 26.5 -31.53125 C 27.300781 -30.46875 27.894531 -29.285156 28.28125 -27.984375 L 20.53125 -25.375 C 20.25 -26.25 19.660156 -26.953125 18.765625 -27.484375 C 17.867188 -28.015625 16.914062 -28.28125 15.90625 -28.28125 C 14.894531 -28.28125 14.078125 -27.941406 13.453125 -27.265625 C 12.828125 -26.585938 12.515625 -25.910156 12.515625 -25.234375 C 12.515625 -24.410156 12.8125 -23.769531 13.40625 -23.3125 C 14.007812 -22.863281 14.675781 -22.539062 15.40625 -22.34375 C 15.9375 -22.25 16.453125 -22.164062 16.953125 -22.09375 C 17.460938 -22.019531 17.957031 -21.9375 18.4375 -21.84375 C 20.125 -21.457031 21.582031 -21.019531 22.8125 -20.53125 C 24.039062 -20.050781 25.113281 -19.472656 26.03125 -18.796875 Z M 26.03125 -18.796875 "/></g></g></g><g fill="#2a1a3f" fill-opacity="1"><g transform="translate(403.477785, 96.374996)"><g><path d="M 14.09375 0 L 4.125 0 L 4.125 -35.859375 L 14.09375 -35.859375 Z M 9.109375 -40.78125 C 7.566406 -40.78125 6.265625 -41.3125 5.203125 -42.375 C 4.140625 -43.4375 3.609375 -44.738281 3.609375 -46.28125 C 3.609375 -47.820312 4.140625 -49.132812 5.203125 -50.21875 C 6.265625 -51.300781 7.566406 -51.84375 9.109375 -51.84375 C 10.648438 -51.84375 11.953125 -51.300781 13.015625 -50.21875 C 14.078125 -49.132812 14.609375 -47.820312 14.609375 -46.28125 C 14.609375 -44.738281 14.078125 -43.4375 13.015625 -42.375 C 11.953125 -41.3125 10.648438 -40.78125 9.109375 -40.78125 Z M 9.109375 -40.78125 "/></g></g></g><g fill="#2a1a3f" fill-opacity="1"><g transform="translate(420.324677, 96.374996)"><g><path d="M 31.390625 -35.859375 L 39.921875 -35.859375 L 39.921875 -12.15625 C 39.921875 -9.40625 39.882812 -6.957031 39.8125 -4.8125 C 39.738281 -2.664062 39.554688 -0.738281 39.265625 0.96875 C 38.972656 2.6875 38.5 4.21875 37.84375 5.5625 C 37.195312 6.914062 36.296875 8.171875 35.140625 9.328125 C 33.023438 11.398438 30.648438 12.820312 28.015625 13.59375 C 25.390625 14.363281 22.628906 14.75 19.734375 14.75 C 17.273438 14.75 14.960938 14.457031 12.796875 13.875 C 10.628906 13.300781 8.675781 12.507812 6.9375 11.5 L 6.9375 2.171875 C 7.375 2.847656 7.988281 3.445312 8.78125 3.96875 C 9.582031 4.5 10.5 4.957031 11.53125 5.34375 C 12.570312 5.726562 13.679688 6.03125 14.859375 6.25 C 16.035156 6.46875 17.226562 6.578125 18.4375 6.578125 C 20.03125 6.578125 21.523438 6.367188 22.921875 5.953125 C 24.316406 5.546875 25.53125 4.882812 26.5625 3.96875 C 27.601562 3.0625 28.425781 1.921875 29.03125 0.546875 C 29.632812 -0.828125 29.9375 -2.503906 29.9375 -4.484375 L 29.9375 -5.203125 C 28.539062 -3.953125 26.925781 -2.953125 25.09375 -2.203125 C 23.257812 -1.453125 21.257812 -1.078125 19.09375 -1.078125 C 16.675781 -1.078125 14.441406 -1.546875 12.390625 -2.484375 C 10.347656 -3.429688 8.578125 -4.710938 7.078125 -6.328125 C 5.585938 -7.941406 4.421875 -9.84375 3.578125 -12.03125 C 2.734375 -14.226562 2.3125 -16.554688 2.3125 -19.015625 C 2.3125 -21.472656 2.734375 -23.785156 3.578125 -25.953125 C 4.421875 -28.128906 5.585938 -30.023438 7.078125 -31.640625 C 8.578125 -33.253906 10.347656 -34.53125 12.390625 -35.46875 C 14.441406 -36.40625 16.675781 -36.875 19.09375 -36.875 C 21.351562 -36.875 23.398438 -36.570312 25.234375 -35.96875 C 27.066406 -35.375 28.632812 -34.425781 29.9375 -33.125 Z M 21.109375 -9.984375 C 22.648438 -9.984375 23.972656 -10.257812 25.078125 -10.8125 C 26.191406 -11.363281 27.109375 -12.070312 27.828125 -12.9375 C 28.554688 -13.8125 29.085938 -14.773438 29.421875 -15.828125 C 29.765625 -16.890625 29.9375 -17.929688 29.9375 -18.953125 C 29.9375 -20.054688 29.753906 -21.148438 29.390625 -22.234375 C 29.035156 -23.316406 28.492188 -24.28125 27.765625 -25.125 C 27.046875 -25.96875 26.128906 -26.65625 25.015625 -27.1875 C 23.910156 -27.71875 22.609375 -27.984375 21.109375 -27.984375 C 19.859375 -27.984375 18.703125 -27.738281 17.640625 -27.25 C 16.578125 -26.769531 15.648438 -26.117188 14.859375 -25.296875 C 14.066406 -24.484375 13.441406 -23.535156 12.984375 -22.453125 C 12.523438 -21.367188 12.296875 -20.203125 12.296875 -18.953125 C 12.296875 -17.691406 12.523438 -16.519531 12.984375 -15.4375 C 13.441406 -14.351562 14.066406 -13.398438 14.859375 -12.578125 C 15.648438 -11.765625 16.578125 -11.128906 17.640625 -10.671875 C 18.703125 -10.210938 19.859375 -9.984375 21.109375 -9.984375 Z M 21.109375 -9.984375 "/></g></g></g><g fill="#2a1a3f" fill-opacity="1"><g transform="translate(461.755148, 96.374996)"><g><path d="M 21.90625 -35.859375 C 23.257812 -35.859375 24.753906 -35.664062 26.390625 -35.28125 C 28.035156 -34.894531 29.578125 -34.171875 31.015625 -33.109375 C 32.460938 -32.054688 33.679688 -30.585938 34.671875 -28.703125 C 35.660156 -26.828125 36.15625 -24.394531 36.15625 -21.40625 L 36.15625 0 L 26.109375 0 L 26.109375 -21.046875 C 26.109375 -22.148438 25.925781 -23.085938 25.5625 -23.859375 C 25.195312 -24.628906 24.710938 -25.242188 24.109375 -25.703125 C 23.515625 -26.160156 22.828125 -26.5 22.046875 -26.71875 C 21.273438 -26.9375 20.503906 -27.046875 19.734375 -27.046875 C 19.109375 -27.046875 18.421875 -26.9375 17.671875 -26.71875 C 16.929688 -26.5 16.234375 -26.148438 15.578125 -25.671875 C 14.929688 -25.191406 14.390625 -24.566406 13.953125 -23.796875 C 13.523438 -23.023438 13.3125 -22.109375 13.3125 -21.046875 L 13.3125 0 L 3.328125 0 L 3.328125 -35.859375 L 11.859375 -35.859375 L 13.3125 -33.125 C 14.46875 -33.9375 15.765625 -34.59375 17.203125 -35.09375 C 18.648438 -35.601562 20.21875 -35.859375 21.90625 -35.859375 Z M 21.90625 -35.859375 "/></g></g></g></svg>