<svg xmlns="http://www.w3.org/2000/svg" xmlns:xlink="http://www.w3.org/1999/xlink" width="500" zoomAndPan="magnify" viewBox="0 0 375 374.999991" height="500" preserveAspectRatio="xMidYMid meet" version="1.0"><path fill="#057DCD" d="M 187.5 0 C 83.953125 0 0 83.953125 0 187.5 C 0 291.046875 83.953125 375 187.5 375 C 291.046875 375 375 291.054688 375 187.5 C 375 83.945312 291.054688 0 187.5 0 Z M 306.601562 134.140625 L 178.941406 261.800781 C 178.941406 261.800781 164.554688 278.484375 149.589844 278.484375 C 134.625 278.484375 118.519531 259.878906 118.519531 259.878906 L 67.441406 201.859375 C 66.960938 201.316406 66.503906 200.753906 66.078125 200.167969 C 65.652344 199.582031 65.253906 198.976562 64.886719 198.351562 C 64.519531 197.726562 64.183594 197.085938 63.878906 196.425781 C 63.574219 195.769531 63.304688 195.097656 63.066406 194.410156 C 62.828125 193.726562 62.625 193.03125 62.453125 192.328125 C 62.285156 191.621094 62.152344 190.910156 62.050781 190.191406 C 61.953125 189.472656 61.890625 188.753906 61.859375 188.027344 C 61.832031 187.304688 61.839844 186.578125 61.882812 185.855469 C 61.929688 185.132812 62.007812 184.410156 62.121094 183.695312 C 62.234375 182.980469 62.386719 182.269531 62.570312 181.570312 C 62.753906 180.867188 62.972656 180.179688 63.226562 179.5 C 63.480469 178.820312 63.765625 178.152344 64.082031 177.5 C 64.402344 176.851562 64.75 176.214844 65.132812 175.597656 C 65.511719 174.980469 65.921875 174.386719 66.363281 173.808594 C 66.800781 173.230469 67.269531 172.679688 67.765625 172.148438 C 68.257812 171.617188 68.777344 171.113281 69.320312 170.632812 C 69.867188 170.15625 70.433594 169.703125 71.019531 169.28125 C 71.609375 168.859375 72.21875 168.464844 72.847656 168.101562 C 73.472656 167.738281 74.117188 167.40625 74.777344 167.105469 C 75.4375 166.808594 76.109375 166.539062 76.796875 166.308594 C 77.484375 166.074219 78.179688 165.875 78.886719 165.710938 C 79.59375 165.546875 80.304688 165.417969 81.023438 165.324219 C 81.742188 165.230469 82.464844 165.171875 83.191406 165.148438 C 83.914062 165.125 84.640625 165.136719 85.363281 165.1875 C 86.085938 165.234375 86.804688 165.316406 87.519531 165.4375 C 88.234375 165.558594 88.941406 165.710938 89.644531 165.902344 C 90.34375 166.089844 91.03125 166.3125 91.710938 166.570312 C 92.386719 166.828125 93.050781 167.117188 93.699219 167.441406 C 94.347656 167.765625 94.980469 168.117188 95.597656 168.503906 C 96.210938 168.886719 96.804688 169.300781 97.378906 169.746094 C 97.949219 170.191406 98.5 170.660156 99.027344 171.160156 C 99.554688 171.65625 100.054688 172.179688 100.53125 172.726562 C 100.53125 172.726562 143.058594 225.195312 149.753906 225.695312 C 156.453125 226.195312 275.429688 102.96875 275.429688 102.96875 C 275.941406 102.46875 276.476562 101.992188 277.035156 101.542969 C 277.59375 101.09375 278.171875 100.671875 278.773438 100.28125 C 279.375 99.886719 279.992188 99.523438 280.625 99.191406 C 281.261719 98.859375 281.910156 98.558594 282.578125 98.289062 C 283.242188 98.019531 283.917969 97.78125 284.605469 97.578125 C 285.292969 97.375 285.988281 97.207031 286.691406 97.070312 C 287.398438 96.9375 288.105469 96.835938 288.820312 96.769531 C 289.535156 96.703125 290.25 96.671875 290.96875 96.675781 C 291.683594 96.679688 292.398438 96.71875 293.113281 96.792969 C 293.824219 96.867188 294.535156 96.972656 295.238281 97.117188 C 295.9375 97.257812 296.632812 97.4375 297.320312 97.644531 C 298.003906 97.855469 298.679688 98.101562 299.339844 98.375 C 300 98.652344 300.648438 98.960938 301.28125 99.300781 C 301.914062 99.636719 302.527344 100.007812 303.121094 100.40625 C 303.71875 100.804688 304.292969 101.234375 304.847656 101.6875 C 305.402344 102.144531 305.929688 102.625 306.4375 103.132812 C 306.945312 103.640625 307.425781 104.171875 307.882812 104.722656 C 308.335938 105.277344 308.765625 105.851562 309.164062 106.449219 C 309.5625 107.042969 309.933594 107.65625 310.269531 108.289062 C 310.609375 108.921875 310.917969 109.570312 311.195312 110.230469 C 311.46875 110.890625 311.714844 111.566406 311.925781 112.25 C 312.132812 112.9375 312.3125 113.632812 312.453125 114.332031 C 312.597656 115.035156 312.703125 115.746094 312.777344 116.457031 C 312.851562 117.171875 312.890625 117.886719 312.894531 118.601562 C 312.898438 119.320312 312.867188 120.035156 312.800781 120.75 C 312.734375 121.464844 312.632812 122.171875 312.5 122.878906 C 312.363281 123.582031 312.195312 124.277344 311.992188 124.964844 C 311.789062 125.652344 311.550781 126.328125 311.28125 126.992188 C 311.011719 127.660156 310.710938 128.308594 310.378906 128.945312 C 310.046875 129.578125 309.683594 130.195312 309.289062 130.796875 C 308.898438 131.398438 308.476562 131.976562 308.027344 132.535156 C 307.578125 133.09375 307.101562 133.628906 306.601562 134.140625 Z M 306.601562 134.140625 " fill-opacity="1" fill-rule="nonzero"/><path stroke-linecap="butt" transform="matrix(0.53033, -0.53033, 0.53033, 0.53033, 175.995682, 228.865737)" fill="none" stroke-linejoin="miter" d="M -0.000979128 1.99786 L 160.000354 2.001543 " stroke="#ffffff" stroke-width="4" stroke-opacity="1" stroke-miterlimit="4"/></svg>