<svg xmlns="http://www.w3.org/2000/svg" xmlns:xlink="http://www.w3.org/1999/xlink" width="500" zoomAndPan="magnify" viewBox="0 0 375 374.999991" height="500" preserveAspectRatio="xMidYMid meet" version="1.0"><defs><clipPath id="f31559300a"><path d="M 148 277 L 221 277 L 221 368.03125 L 148 368.03125 Z M 148 277 " clip-rule="nonzero"/></clipPath><clipPath id="23ceb883d6"><path d="M 100 10.28125 L 260 10.28125 L 260 287 L 100 287 Z M 100 10.28125 " clip-rule="nonzero"/></clipPath><clipPath id="b24017559e"><path d="M 143 10.28125 L 217 10.28125 L 217 44 L 143 44 Z M 143 10.28125 " clip-rule="nonzero"/></clipPath></defs><path fill="#00317D" d="M 325.289062 304.320312 C 323.890625 304.320312 322.550781 303.621094 321.738281 302.371094 C 320.980469 301.175781 303.339844 272.878906 304.507812 238.0625 C 304.507812 238.0625 309.664062 207.679688 307.183594 190.4375 C 304.214844 173.757812 296.558594 144.90625 288.90625 139.722656 C 276.039062 131.019531 276.125 108.367188 276.242188 104.496094 C 275.804688 102.488281 274.234375 97.832031 271.265625 96.605469 C 268.5 95.472656 264.660156 97.480469 261.746094 99.488281 C 259.066406 103.097656 242.125 128.164062 266.695312 158.324219 C 270.152344 162.589844 263.671875 167.894531 260.171875 163.621094 C 230.074219 126.84375 254.566406 94.371094 256.332031 93.023438 C 274.828125 78.90625 284.800781 97.230469 284.628906 104.347656 C 284.335938 110.371094 285.414062 127.199219 293.621094 132.761719 C 306.691406 141.609375 314.640625 184.375 315.511719 189.238281 C 317.8125 210.109375 313.476562 235.378906 312.894531 238.640625 C 311.933594 270.664062 328.671875 297.621094 328.847656 297.882812 C 330.558594 300.527344 328.695312 304.320312 325.292969 304.320312 Z M 325.289062 304.320312 " fill-opacity="1" fill-rule="evenodd"/><g clip-path="url(#f31559300a)"><path fill="#00317D" d="M 216.445312 368.015625 C 213.953125 368.015625 212.097656 365.933594 212.253906 363.5625 C 213.5625 344.4375 188.234375 327.726562 185.820312 326.183594 C 152.953125 310.699219 148.675781 288.804688 148.152344 282.429688 C 147.679688 276.917969 156.070312 276.273438 156.503906 281.761719 C 156.941406 287 160.578125 305.136719 189.605469 318.707031 C 191.066406 319.339844 222.273438 339.167969 220.605469 364.148438 C 220.460938 366.332031 218.625 368.019531 216.445312 368.019531 Z M 216.445312 368.015625 " fill-opacity="1" fill-rule="evenodd"/></g><path fill="#00317D" d="M 119.101562 156.925781 C 112.382812 156.925781 92.855469 147.136719 84.808594 143.625 C 62.089844 133.707031 77.734375 98.886719 100.0625 108.660156 L 126.988281 120.417969 C 145.804688 128.632812 138.730469 156.925781 119.097656 156.925781 Z M 92.726562 115.5 C 82.007812 115.5 77.695312 131.351562 88.15625 135.9375 L 115.082031 147.699219 C 127.375 153.085938 135.972656 133.507812 123.640625 128.132812 C 118.5625 125.921875 96.671875 115.5 92.726562 115.5 Z M 92.726562 115.5 " fill-opacity="1" fill-rule="evenodd"/><path fill="#00317D" d="M 115.257812 194.800781 C 108.550781 194.800781 88.996094 185.011719 80.96875 181.496094 C 58.488281 171.65625 73.804688 136.75 96.222656 146.5625 L 123.148438 158.324219 C 141.875 166.523438 135.035156 194.804688 115.261719 194.804688 Z M 88.828125 153.375 C 78.125 153.375 73.855469 169.242188 84.285156 173.785156 L 111.210938 185.546875 C 123.648438 190.984375 132.058594 171.308594 119.769531 165.953125 C 114.554688 163.679688 92.964844 153.375 88.824219 153.375 Z M 88.828125 153.375 " fill-opacity="1" fill-rule="evenodd"/><path fill="#00317D" d="M 112.230469 230.757812 C 106.289062 230.757812 89.527344 222.296875 82.390625 219.199219 C 73.773438 215.457031 70.148438 205.910156 74.269531 196.460938 C 77.90625 188.109375 87.6875 184.265625 96.042969 187.902344 L 119.300781 198.0625 C 136.167969 205.421875 129.8125 230.757812 112.226562 230.757812 Z M 89.40625 194.949219 C 80.769531 194.949219 77.296875 207.824219 85.710938 211.515625 L 108.96875 221.671875 C 118.863281 226.015625 125.976562 210.207031 115.898438 205.804688 C 111.632812 203.945312 92.648438 194.945312 89.40625 194.945312 Z M 89.40625 194.949219 " fill-opacity="1" fill-rule="evenodd"/><path fill="#00317D" d="M 103.496094 103.972656 C 100.496094 103.972656 97.53125 103.246094 94.851562 101.816406 L 68.914062 88.019531 C 47.0625 76.40625 65.214844 42.910156 86.816406 54.335938 L 106.875 64.992188 C 108.242188 65.71875 109.085938 67.144531 109.085938 68.6875 L 109.085938 99.691406 C 109.085938 103.039062 106.28125 103.96875 103.5 103.96875 Z M 78.167969 60.59375 C 67.945312 60.59375 63.054688 75.472656 72.84375 80.652344 L 100.703125 95.238281 L 100.703125 71.28125 C 95.351562 68.4375 82.484375 60.59375 78.171875 60.59375 Z M 78.167969 60.59375 " fill-opacity="1" fill-rule="evenodd"/><g clip-path="url(#23ceb883d6)"><path fill="#00317D" d="M 233.707031 286.242188 L 126.375 286.242188 C 112.230469 286.242188 100.730469 274.746094 100.730469 260.59375 L 100.730469 224.464844 C 100.730469 218.949219 109.113281 218.945312 109.113281 224.464844 L 109.113281 260.59375 C 109.113281 270.113281 116.859375 277.859375 126.375 277.859375 L 233.703125 277.859375 C 243.222656 277.859375 250.964844 270.113281 250.964844 260.59375 L 250.964844 148.367188 C 250.964844 142.847656 259.351562 142.847656 259.351562 148.367188 L 259.351562 260.59375 C 259.347656 274.742188 247.851562 286.242188 233.703125 286.242188 Z M 104.894531 200.597656 C 99.351562 200.597656 100.699219 193.308594 100.699219 187.378906 C 100.699219 181.855469 109.085938 181.851562 109.085938 187.378906 C 109.085938 193.359375 110.433594 200.597656 104.894531 200.597656 Z M 104.894531 159.082031 C 99.558594 159.082031 100.699219 152.566406 100.699219 147.816406 C 100.699219 142.292969 109.085938 142.289062 109.085938 147.816406 C 109.085938 152.578125 110.234375 159.082031 104.894531 159.082031 Z M 104.894531 119.519531 C 102.5625 119.519531 100.699219 117.65625 100.699219 115.328125 L 100.699219 35.9375 C 100.699219 21.789062 112.199219 10.292969 126.347656 10.292969 L 233.675781 10.292969 C 247.824219 10.292969 259.324219 21.789062 259.324219 35.9375 L 259.324219 102.199219 C 259.324219 107.71875 250.9375 107.71875 250.9375 102.199219 L 250.9375 35.9375 C 250.9375 26.417969 243.195312 18.675781 233.675781 18.675781 L 126.375 18.675781 C 116.855469 18.675781 109.113281 26.417969 109.113281 35.9375 L 109.113281 115.328125 C 109.082031 117.65625 107.21875 119.519531 104.890625 119.519531 Z M 104.894531 119.519531 " fill-opacity="1" fill-rule="evenodd"/></g><g clip-path="url(#b24017559e)"><path fill="#00317D" d="M 200.695312 43.070312 L 159.359375 43.070312 C 156.300781 43.070312 152.167969 41.617188 149.957031 34.742188 L 143.816406 15.761719 C 142.933594 13.011719 145.011719 10.289062 147.804688 10.289062 L 212.226562 10.289062 C 215.070312 10.289062 217.070312 13.082031 216.210938 15.761719 L 210.070312 34.742188 C 207.886719 41.613281 203.753906 43.066406 200.695312 43.066406 Z M 153.59375 18.675781 C 154.148438 20.382812 158.320312 34.386719 159.269531 34.65625 L 200.695312 34.65625 C 201.75 34.65625 205.867188 20.589844 206.484375 18.675781 Z M 153.59375 18.675781 " fill-opacity="1" fill-rule="evenodd"/></g><path fill="#00317D" d="M 255.160156 250.550781 L 104.894531 250.550781 C 99.375 250.550781 99.375 242.167969 104.894531 242.167969 L 255.160156 242.167969 C 260.660156 242.167969 260.695312 250.550781 255.160156 250.550781 Z M 255.160156 250.550781 " fill-opacity="1" fill-rule="evenodd"/><path fill="00317D" d="M 188.761719 274.628906 L 171.296875 274.628906 C 157.585938 274.628906 157.585938 253.78125 171.296875 253.78125 L 188.734375 253.785156 C 202.4375 253.785156 202.449219 274.628906 188.761719 274.628906 Z M 171.296875 262.167969 C 168.621094 262.167969 168.621094 266.242188 171.296875 266.242188 L 188.734375 266.246094 C 191.410156 266.246094 191.410156 262.167969 188.734375 262.167969 Z M 171.296875 262.167969 " fill-opacity="1" fill-rule="evenodd"/></svg>