<svg xmlns="http://www.w3.org/2000/svg" xmlns:xlink="http://www.w3.org/1999/xlink" width="400" zoomAndPan="magnify" viewBox="0 0 300 149.999998" height="200" preserveAspectRatio="xMidYMid meet" version="1.0"><defs><clipPath id="8818864277"><path d="M 134 39 L 166 39 L 166 111.464844 L 134 111.464844 Z M 134 39 " clip-rule="nonzero"/></clipPath></defs><path fill="#057dcd" d="M 124.207031 101.054688 C 122.671875 101.054688 121.652344 100.546875 120.628906 99.523438 L 100.1875 79.082031 C 98.144531 77.039062 98.144531 73.972656 100.1875 71.929688 L 120.628906 51.488281 C 122.671875 49.445312 125.738281 49.445312 127.78125 51.488281 C 129.828125 53.53125 129.828125 56.597656 127.78125 58.644531 L 110.917969 75.503906 L 127.78125 92.367188 C 129.828125 94.414062 129.828125 97.480469 127.78125 99.523438 C 126.761719 100.546875 125.738281 101.054688 124.207031 101.054688 Z M 124.207031 101.054688 " fill-opacity="1" fill-rule="nonzero"/><path fill="#057dcd" d="M 175.304688 101.054688 C 173.773438 101.054688 172.75 100.546875 171.730469 99.523438 C 169.683594 97.480469 169.683594 94.414062 171.730469 92.367188 L 188.59375 75.503906 L 171.730469 58.644531 C 169.683594 56.597656 169.683594 53.53125 171.730469 51.488281 C 173.773438 49.445312 176.839844 49.445312 178.882812 51.488281 L 199.324219 71.929688 C 201.367188 73.972656 201.367188 77.039062 199.324219 79.082031 L 178.882812 99.523438 C 177.859375 100.546875 176.839844 101.054688 175.304688 101.054688 Z M 175.304688 101.054688 " fill-opacity="1" fill-rule="nonzero"/><g clip-path="url(#8818864277)"><path fill="#057dcd" d="M 139.535156 111.277344 C 139.023438 111.277344 138.515625 111.277344 138.003906 110.765625 C 135.449219 109.742188 133.914062 107.1875 134.9375 104.121094 L 155.378906 42.800781 C 156.398438 40.246094 158.953125 38.714844 162.019531 39.734375 C 164.574219 40.757812 166.109375 43.3125 165.085938 46.378906 L 144.644531 107.699219 C 143.625 109.742188 141.578125 111.277344 139.535156 111.277344 Z M 139.535156 111.277344 " fill-opacity="1" fill-rule="nonzero"/></g><path stroke-linecap="butt" transform="matrix(0.75, 0, 0, 0.75, 3.84432, 74.969383)" fill="none" stroke-linejoin="miter" d="M -0.000759866 1.499156 L 112.337788 1.499156 " stroke="#057dcd" stroke-width="3" stroke-opacity="1" stroke-miterlimit="4"/><path stroke-linecap="butt" transform="matrix(0.75, 0, 0, 0.75, 211.901724, 75.881906)" fill="none" stroke-linejoin="miter" d="M 0.000826681 1.501208 L 112.339375 1.501208 " stroke="#057dcd" stroke-width="3" stroke-opacity="1" stroke-miterlimit="4"/></svg>